<svg width="92" height="94" viewBox="0 0 92 94" fill="none" xmlns="http://www.w3.org/2000/svg">
  <circle cx="46" cy="48" r="46" fill="#483838"/>
  <path d="M38.6973 59H32.9639V43.3027L33.0195 40.7236L33.1123 37.9033C32.1598 38.8558 31.498 39.4805 31.127 39.7773L28.0098 42.2822L25.2451 38.8311L33.9844 31.873H38.6973V59ZM65.0449 45.4365C65.0449 50.1742 64.2656 53.681 62.707 55.957C61.1608 58.2331 58.7734 59.3711 55.5449 59.3711C52.4154 59.3711 50.0527 58.196 48.457 55.8457C46.8737 53.4954 46.082 50.0257 46.082 45.4365C46.082 40.6494 46.8551 37.124 48.4014 34.8604C49.9476 32.5843 52.3288 31.4463 55.5449 31.4463C58.6745 31.4463 61.0371 32.6338 62.6328 35.0088C64.2409 37.3838 65.0449 40.8597 65.0449 45.4365ZM51.7783 45.4365C51.7783 48.764 52.0628 51.1514 52.6318 52.5986C53.2132 54.0335 54.1842 54.751 55.5449 54.751C56.8809 54.751 57.8457 54.0212 58.4395 52.5615C59.0332 51.1019 59.3301 48.7269 59.3301 45.4365C59.3301 42.109 59.027 39.7217 58.4209 38.2744C57.8271 36.8148 56.8685 36.085 55.5449 36.085C54.1966 36.085 53.2318 36.8148 52.6504 38.2744C52.069 39.7217 51.7783 42.109 51.7783 45.4365ZM29.0293 75.1758C28.4023 75.1758 27.8281 75.0615 27.3066 74.833C26.791 74.5986 26.3574 74.2412 26.0059 73.7607H25.9004C25.9707 74.3232 26.0059 74.8564 26.0059 75.3604V79.3242H24.5469V65.3672H25.7334L25.9355 66.6855H26.0059C26.3809 66.1582 26.8174 65.7773 27.3154 65.543C27.8135 65.3086 28.3848 65.1914 29.0293 65.1914C30.3066 65.1914 31.291 65.6279 31.9824 66.501C32.6797 67.374 33.0283 68.5986 33.0283 70.1748C33.0283 71.7568 32.6738 72.9873 31.9648 73.8662C31.2617 74.7393 30.2832 75.1758 29.0293 75.1758ZM28.8184 66.4307C27.834 66.4307 27.1221 66.7031 26.6826 67.248C26.2432 67.793 26.0176 68.6602 26.0059 69.8496V70.1748C26.0059 71.5283 26.2314 72.498 26.6826 73.084C27.1338 73.6641 27.8574 73.9541 28.8535 73.9541C29.6855 73.9541 30.3359 73.6172 30.8047 72.9434C31.2793 72.2695 31.5166 71.3408 31.5166 70.1572C31.5166 68.9561 31.2793 68.0361 30.8047 67.3975C30.3359 66.7529 29.6738 66.4307 28.8184 66.4307ZM43.9004 70.1748C43.9004 71.7451 43.5049 72.9727 42.7139 73.8574C41.9229 74.7363 40.8301 75.1758 39.4355 75.1758C38.5742 75.1758 37.8096 74.9736 37.1416 74.5693C36.4736 74.165 35.958 73.585 35.5947 72.8291C35.2314 72.0732 35.0498 71.1885 35.0498 70.1748C35.0498 68.6045 35.4424 67.3828 36.2275 66.5098C37.0127 65.6309 38.1025 65.1914 39.4971 65.1914C40.8447 65.1914 41.9141 65.6396 42.7051 66.5361C43.502 67.4326 43.9004 68.6455 43.9004 70.1748ZM36.5615 70.1748C36.5615 71.4053 36.8076 72.3428 37.2998 72.9873C37.792 73.6318 38.5156 73.9541 39.4707 73.9541C40.4258 73.9541 41.1494 73.6348 41.6416 72.9961C42.1396 72.3516 42.3887 71.4111 42.3887 70.1748C42.3887 68.9502 42.1396 68.0215 41.6416 67.3887C41.1494 66.75 40.4199 66.4307 39.4531 66.4307C38.498 66.4307 37.7773 66.7441 37.291 67.3711C36.8047 67.998 36.5615 68.9326 36.5615 70.1748ZM52.083 65.3672H53.6826L49.5254 70.0166L54.0254 75H52.3203L47.9258 70.1221V75H46.4668V65.3672H47.9258V70.0518L52.083 65.3672ZM57.2773 75H55.8184V65.3672H57.2773V75ZM55.6953 62.7568C55.6953 62.4229 55.7773 62.1797 55.9414 62.0273C56.1055 61.8691 56.3105 61.79 56.5566 61.79C56.791 61.79 56.9932 61.8691 57.1631 62.0273C57.333 62.1855 57.418 62.4287 57.418 62.7568C57.418 63.085 57.333 63.3311 57.1631 63.4951C56.9932 63.6533 56.791 63.7324 56.5566 63.7324C56.3105 63.7324 56.1055 63.6533 55.9414 63.4951C55.7773 63.3311 55.6953 63.085 55.6953 62.7568ZM68.1846 67.7842C68.1846 68.4111 68.0029 68.8887 67.6396 69.2168C67.2822 69.5391 66.7783 69.7559 66.1279 69.8672V69.9463C66.9482 70.0576 67.5459 70.2979 67.9209 70.667C68.3018 71.0361 68.4922 71.5459 68.4922 72.1963C68.4922 73.0928 68.1611 73.7842 67.499 74.2705C66.8428 74.7568 65.8818 75 64.6162 75H60.3711V65.3672H64.5986C66.9893 65.3672 68.1846 66.1729 68.1846 67.7842ZM67.0332 72.0996C67.0332 71.5781 66.834 71.2002 66.4355 70.9658C66.043 70.7256 65.3896 70.6055 64.4756 70.6055H61.8301V73.7783H64.5107C66.1924 73.7783 67.0332 73.2188 67.0332 72.0996ZM66.7607 67.9248C66.7607 67.4561 66.5791 67.125 66.2158 66.9316C65.8584 66.7324 65.3135 66.6328 64.5811 66.6328H61.8301V69.3486H64.2998C65.2021 69.3486 65.8379 69.2373 66.207 69.0146C66.5762 68.792 66.7607 68.4287 66.7607 67.9248Z" fill="white"/>
  <path d="M66 11L68.6942 19.2918H77.4127L70.3593 24.4164L73.0534 32.7082L66 27.5836L58.9466 32.7082L61.6407 24.4164L54.5873 19.2918H63.3058L66 11Z" fill="#FFF384"/>
  <path d="M90.5 15L90.8368 16.0365H91.9266L91.0449 16.6771L91.3817 17.7135L90.5 17.0729L89.6183 17.7135L89.9551 16.6771L89.0734 16.0365H90.1632L90.5 15Z" fill="#FFCB45"/>
  <path d="M90.5 7L90.8368 8.03647H91.9266L91.0449 8.67705L91.3817 9.71353L90.5 9.07295L89.6183 9.71353L89.9551 8.67705L89.0734 8.03647H90.1632L90.5 7Z" fill="#ED5858"/>
  <path d="M78.5 3L79.0613 4.72746H80.8776L79.4082 5.79508L79.9695 7.52254L78.5 6.45492L77.0305 7.52254L77.5918 5.79508L76.1224 4.72746H77.9387L78.5 3Z" fill="#ED5858"/>
  <path d="M53 0L54.7961 5.52786H60.6085L55.9062 8.94427L57.7023 14.4721L53 11.0557L48.2977 14.4721L50.0938 8.94427L45.3915 5.52786H51.2039L53 0Z" fill="#C2FF9C"/>
  <path d="M85.2802 8.3672L84.9778 11.6226L87.9805 12.9162L84.791 13.6346L84.4885 16.89L82.8197 14.0786L79.6302 14.7969L81.7883 12.341L80.1195 9.52956L83.1221 10.8231L85.2802 8.3672Z" fill="#C2FF9C"/>
  <path d="M82.5 20L83.7348 23.8004H87.7308L84.498 26.1492L85.7328 29.9496L82.5 27.6008L79.2672 29.9496L80.502 26.1492L77.2692 23.8004H81.2652L82.5 20Z" fill="#B5E7F8"/>
</svg>
