<svg width="22" height="22" viewBox="0 0 22 22" fill="none" xmlns="http://www.w3.org/2000/svg">
  <path d="M11 0.951324C5.45884 0.951324 0.966797 5.36817 0.966797 10.8166C0.966797 16.265 5.45884 20.6818 11 20.6818C16.5412 20.6818 21.0332 16.265 21.0332 10.8166C21.0332 5.36817 16.5412 0.951324 11 0.951324ZM17.418 7.62969L9.86734 15.0541C9.65882 15.259 9.38554 15.3616 9.11225 15.3616C8.8391 15.3616 8.56569 15.2591 8.35734 15.0541L4.58184 11.3418C4.16479 10.9317 4.16479 10.267 4.58184 9.85696C4.9989 9.44688 5.67493 9.44688 6.09198 9.85696L9.11225 12.8267L15.908 6.1448C16.3251 5.73485 17.0012 5.73472 17.418 6.1448C17.8352 6.55491 17.8352 7.21975 17.418 7.62969Z" fill="#9D9C9C"/>
</svg>
