<svg width="22" height="22" viewBox="0 0 22 22" fill="none" xmlns="http://www.w3.org/2000/svg">
  <g clip-path="url(#clip0)">
    <path d="M2.11157 7.68553C2.38986 7.88191 3.22875 8.46516 4.62828 9.43499C6.02785 10.4048 7.10001 11.1516 7.84482 11.6753C7.92665 11.7327 8.1005 11.8574 8.36645 12.0498C8.63245 12.2423 8.85347 12.3978 9.02934 12.5164C9.20534 12.635 9.41811 12.7681 9.66785 12.9153C9.91751 13.0625 10.1529 13.1732 10.3738 13.2464C10.5949 13.3203 10.7994 13.3569 10.9877 13.3569H11H11.0124C11.2006 13.3569 11.4053 13.3203 11.6263 13.2464C11.8472 13.1732 12.0827 13.0624 12.3322 12.9153C12.5818 12.7679 12.7945 12.635 12.9705 12.5164C13.1465 12.3978 13.3674 12.2423 13.6335 12.0498C13.8994 11.8573 14.0734 11.7327 14.1553 11.6753C14.9081 11.1516 16.8235 9.82152 19.9007 7.68527C20.4982 7.26804 20.9973 6.76459 21.3983 6.17528C21.7996 5.58622 22 4.96826 22 4.32175C22 3.7815 21.8055 3.31903 21.4167 2.9344C21.0279 2.54968 20.5675 2.35742 20.0357 2.35742H1.9642C1.33404 2.35742 0.849081 2.57019 0.509423 2.99572C0.169808 3.42133 0 3.95333 0 4.59167C0 5.10728 0.225149 5.66603 0.675231 6.26756C1.12527 6.86913 1.60421 7.34183 2.11157 7.68553Z" fill="white" fill-opacity="0.6"/>
    <path d="M20.7722 8.99919C18.0879 10.816 16.0497 12.2279 14.6585 13.2348C14.192 13.5784 13.8136 13.8466 13.5229 14.0388C13.2323 14.2312 12.8458 14.4276 12.3628 14.628C11.88 14.8287 11.43 14.9288 11.0126 14.9288H11H10.9877C10.5703 14.9288 10.1201 14.8287 9.63728 14.628C9.15448 14.4276 8.76769 14.2312 8.47714 14.0388C8.18667 13.8466 7.8081 13.5784 7.34163 13.2348C6.23666 12.4245 4.20284 11.0125 1.24008 8.99919C0.773444 8.68839 0.360126 8.33213 0 7.93115V17.6786C0 18.2192 0.192254 18.6814 0.576976 19.066C0.961613 19.4509 1.42412 19.6432 1.96433 19.6432H20.0358C20.5759 19.6432 21.0384 19.4509 21.4231 19.066C21.8079 18.6812 22 18.2192 22 17.6786V7.93115C21.648 8.32383 21.2389 8.68009 20.7722 8.99919Z" fill="white" fill-opacity="0.6"/>
  </g>
  <defs>
    <clipPath id="clip0">
      <rect width="22" height="22" fill="white"/>
    </clipPath>
  </defs>
</svg>
