<svg width="27" height="27" viewBox="0 0 27 27" fill="none" xmlns="http://www.w3.org/2000/svg">
  <path d="M23.0449 0H3.95508C1.77398 0 0 1.77398 0 3.95508V23.0449C0 25.226 1.77398 27 3.95508 27H12.7617V25.418V17.4023H9.59766V14.2383H12.7617V10.2832C12.7617 8.10211 14.5357 6.32812 16.7168 6.32812H20.6719V9.49219H17.5078C16.6356 9.49219 15.9258 10.202 15.9258 11.0742V14.2383H20.529L20.0016 17.4023H15.9258V25.418V27H23.0449C25.226 27 27 25.226 27 23.0449V3.95508C27 1.77398 25.226 0 23.0449 0Z" fill="white"/>
</svg>
