<svg width="102" height="96" viewBox="0 0 102 96" fill="none" xmlns="http://www.w3.org/2000/svg">
  <path d="M85.6638 64.0217C85.3472 54.7606 78.0779 52.7189 78.0779 52.7189L64.6457 48.4399L54.734 46.5386V45.8936L53.0521 46.2161L51.3703 45.8936V46.5386L41.4586 48.4399L28.0264 52.7189C28.0264 52.7189 20.757 54.7606 20.4405 64.0217C20.2756 68.8459 20.2825 78.872 20.327 82.2336C20.3642 85.0554 22.8259 87.3155 25.8482 87.3155H80.2561C83.2786 87.3155 85.74 85.0554 85.7774 82.2336C85.8218 78.872 85.8288 68.8457 85.6638 64.0217Z" fill="#EDEDED"/>
  <path d="M61.858 55.2098L52.9254 54.1317L44.2148 55.2098V39.2493H61.858V55.2098Z" fill="#D6B250"/>
  <path d="M66.7776 28.8964C65.4685 28.7025 64.0826 30.4563 63.6819 32.8137C63.2813 35.1711 64.0177 37.2394 65.3268 37.4333C66.6358 37.6273 68.0218 35.8735 68.4224 33.5161C68.823 31.1586 68.0866 29.0904 66.7776 28.8964Z" fill="#FED35B"/>
  <path d="M38.7843 28.8811C40.0985 28.6864 41.4899 30.4471 41.8921 32.8137C42.2942 35.1804 41.5549 37.2567 40.2407 37.4514C38.9266 37.6461 37.5352 35.8854 37.133 33.5188C36.7308 31.1521 37.4702 29.0758 38.7843 28.8811Z" fill="#FED35B"/>
  <path d="M52.7524 45.8936C60.3957 45.8936 66.5918 38.8892 66.5918 30.2489C66.5918 21.6085 60.3957 14.6041 52.7524 14.6041C45.1092 14.6041 38.9131 21.6085 38.9131 30.2489C38.9131 38.8892 45.1092 45.8936 52.7524 45.8936Z" fill="#FEDA6F"/>
  <path d="M65.4486 13.121C64.4647 12.2941 63.1798 12.8804 62.3352 13.454C62.4344 12.2766 62.0573 10.9304 60.2776 10.0029C56.4489 8.00781 37.6286 5.2784 37.2195 24.7424L37.2238 24.7399C37.1428 25.5599 37.0959 26.4221 37.0967 27.3414C37.101 32.5886 39.1733 35.3317 39.9678 36.36C40.1955 36.6542 40.6086 36.7608 40.9716 36.6309C41.4466 36.4607 41.6523 35.9524 41.4378 35.5217C41.0135 34.6695 39.8697 24.716 44.178 21.7624C45.163 21.087 47.3572 20.4125 49.851 19.8767C48.3518 24.3083 46.3389 24.6737 46.3389 24.6737C54.1003 24.0862 58.4443 20.4322 59.9575 18.886C60.4342 18.9476 60.8131 19.0433 61.0412 19.1853C61.6577 19.5691 64.8435 20.7075 64.8435 25.2238C64.8435 28.9407 65.6738 32.8457 65.1668 36.0377C65.0969 36.4774 65.473 36.8673 65.9492 36.8673C66.2936 36.8673 66.5959 36.6634 66.7024 36.3576C67.099 35.2168 67.6055 33.5524 67.9767 31.6101V31.6109C67.9767 31.6109 67.9784 31.6008 67.9811 31.5836C68.1088 30.9123 68.2109 30.2011 68.296 29.4739C68.455 28.3823 68.5985 26.8273 68.9672 24.7424C70.1823 17.8721 67.048 14.4648 65.4486 13.121Z" fill="#304551"/>
  <path d="M55.2079 54.0518H51.1528L49.1255 56.2028L51.1528 60.6099H55.2079L57.2353 56.2028L55.2079 54.0518Z" fill="#4DA0DC"/>
  <path d="M61.8578 44.6807L53.0586 54.1194L61.0883 59.2461L64.7985 48.4887L61.8578 44.6807Z" fill="white"/>
  <path d="M44.215 44.6807L53.1802 54.1194L45.0159 59.2461L41.3057 48.4886L44.215 44.6807Z" fill="white"/>
  <path d="M58.6695 87.3565H47.6924L51.1524 60.6099H55.2094L58.6695 87.3565Z" fill="#4DA0DC"/>
  <path d="M46.9209 60.8484L51.9766 58.2231V60.8484H46.9209Z" fill="#FEDA6F"/>
  <path d="M55.2048 48.5503C58.4502 47.834 60.4592 44.7968 59.6921 41.7665C58.9249 38.7362 55.6721 36.8604 52.4267 37.5767C49.1812 38.293 47.1722 41.3302 47.9394 44.3605C48.7065 47.3908 51.9594 49.2666 55.2048 48.5503Z" fill="#344D5B"/>
  <path d="M58.7078 46.3922C57.6168 47.8052 55.8337 48.7253 53.8199 48.7253C50.4843 48.7253 47.7783 46.2024 47.7783 43.0879C47.7783 41.2185 48.752 39.5609 50.2536 38.5386C49.5302 39.466 49.1039 40.6088 49.1039 41.8429C49.1039 44.9573 51.8099 47.4803 55.1455 47.4803C56.4789 47.4803 57.7107 47.0786 58.7078 46.3922Z" fill="#304551"/>
  <path d="M50.1733 49.6551L51.2707 73.4032C51.3693 74.649 52.4806 75.6128 53.8184 75.6128H53.8185C55.1563 75.6128 56.2676 74.649 56.3662 73.4032L57.4635 49.6551H50.1733Z" fill="#344D5B"/>
  <path d="M56.3537 73.4764C56.2911 74.0716 55.9939 74.5937 55.556 74.9734C55.1024 75.3714 54.4885 75.6124 53.8198 75.6124C52.4785 75.6124 51.368 74.6485 51.2702 73.4034L50.1714 49.6563H51.2194L52.2439 71.7677C52.3417 73.0128 53.4561 73.9767 54.7935 73.9767C55.38 73.9767 55.9236 73.7905 56.3537 73.4764Z" fill="#19282F"/>
  <path d="M59.3836 49.6551H48.253C47.6931 49.6551 47.2393 50.0789 47.2393 50.6016V57.7004C47.2393 58.2232 47.6931 58.6469 48.253 58.6469H59.3836C59.9435 58.6469 60.3974 58.2232 60.3974 57.7004V50.6016C60.3974 50.0789 59.9435 49.6551 59.3836 49.6551Z" fill="#DE594E"/>
  <path d="M60.2661 42.2786L60.2644 42.2684C60.2178 41.993 59.9432 41.8068 59.6481 41.8468C55.7818 42.3705 51.8549 42.3705 47.9886 41.8468C47.6935 41.8068 47.4189 41.993 47.3723 42.2684L47.3706 42.2786C47.3232 42.5584 47.5289 42.8235 47.8287 42.8641C51.801 43.4024 55.8356 43.4024 59.808 42.8641C60.1078 42.8235 60.3135 42.5584 60.2661 42.2786Z" fill="#DBD8DD"/>
  <path d="M57.8184 47.3112H49.8179L50.216 49.6566H57.4204L57.8184 47.3112Z" fill="#467082"/>
  <path d="M60.3972 57.7217C60.3855 58.2329 59.9358 58.6455 59.3844 58.6455H48.2516C47.6924 58.6455 47.2388 58.2219 47.2388 57.6998V50.602C47.2388 50.204 47.5047 49.8608 47.8762 49.722C48.3611 52.2815 50.7112 54.9359 54.1954 56.495C56.2952 57.4369 58.4655 57.8313 60.3972 57.7217Z" fill="#CD5248"/>
  <path d="M51.3089 56.0498V52.7008H49.9692V52.2527H53.1922V52.7008H51.847V56.0498H51.3089Z" fill="#EDEDED"/>
  <path d="M55.5227 56.0498L53.9473 52.2527H54.5297L55.5865 55.0112C55.6715 55.2322 55.7427 55.4394 55.8001 55.6328C55.8629 55.4256 55.936 55.2184 56.0192 55.0112L57.1175 52.2527H57.6667L56.0746 56.0498H55.5227Z" fill="#EDEDED"/>
  <path d="M59.2394 65.1127C59.2394 64.3272 58.5576 63.6909 57.7165 63.6909C58.5576 63.6909 59.2394 63.0541 59.2394 62.2691C59.2394 61.4836 58.5576 60.8468 57.7165 60.8468H46.921L43.5215 62.2058L44.6942 72.5537L57.7165 72.2223C58.5576 72.2223 59.2394 71.586 59.2394 70.8005C59.2394 70.015 58.5576 69.3787 57.7165 69.3787C58.5576 69.3787 59.2394 68.7419 59.2394 67.9568C59.2394 67.1713 58.5576 66.5345 57.7165 66.5345C58.5576 66.5345 59.2394 65.8982 59.2394 65.1127Z" fill="#FEDA6F"/>
  <path d="M43.5217 62.2059L32.9945 70.0603L27.7817 78.5957L32.2318 77.1823L37.3423 75.6128L44.6944 72.5538L43.5217 62.2059Z" fill="#FEDA6F"/>
  <path d="M43.5212 74.2008L38.5061 65.1717L20.2998 75.6124L22.1664 78.6389C23.9246 81.4899 27.8159 82.4839 30.8837 80.8659L43.5212 74.2008Z" fill="#EDEDED"/>
  <path d="M38.5063 65.1717L29.6743 70.4008L31.3558 68.5754L38.5063 65.1717Z" fill="#DBD8DD"/>
  <path d="M20.5446 62.6343L16.2941 81.5818C15.7841 83.9941 17.2932 86.3799 19.8019 87.1275C21.3326 87.5835 23.0033 87.3509 24.3247 86.4973L31.3607 81.9531L20.5446 62.6343Z" fill="#EDEDED"/>
  <path d="M73.3022 87.3155V71.767L70.5488 87.3155H73.3022Z" fill="#DBD8DD"/>
  <path d="M43.3531 74.2912L23.6201 86.8812C24.4838 87.2748 25.5478 87.3542 26.6859 87.3171L43.3531 74.2912Z" fill="#DBD8DD"/>
</svg>
