<svg width="186" height="72" viewBox="0 0 186 72" fill="none" xmlns="http://www.w3.org/2000/svg">
  <rect x="0.5" y="0.5" width="185" height="71" stroke="#D31313"/>
  <rect width="186" height="32" fill="#D31313"/>
  <path d="M31.8809 56.5846C31.8809 58.6067 31.1507 60.1998 29.6903 61.364C28.2402 62.5282 26.2181 63.1103 23.6241 63.1103C21.2344 63.1103 19.1205 62.661 17.2822 61.7623V57.3505C18.7937 58.0246 20.0702 58.4994 21.1119 58.7752C22.1638 59.0509 23.1237 59.1888 23.9918 59.1888C25.0335 59.1888 25.83 58.9896 26.3815 58.5913C26.9432 58.1931 27.224 57.6007 27.224 56.8144C27.224 56.3753 27.1015 55.9872 26.8564 55.6502C26.6113 55.3029 26.2487 54.971 25.7687 54.6545C25.299 54.3379 24.3339 53.8324 22.8735 53.1379C21.5051 52.4945 20.4787 51.8767 19.7945 51.2844C19.1102 50.692 18.5639 50.0027 18.1554 49.2163C17.7469 48.43 17.5426 47.5109 17.5426 46.459C17.5426 44.4778 18.2116 42.9204 19.5494 41.7868C20.8974 40.6532 22.7561 40.0864 25.1254 40.0864C26.2896 40.0864 27.3976 40.2243 28.4495 40.5C29.5116 40.7758 30.6196 41.1639 31.7736 41.6643L30.2418 45.356C29.0469 44.8659 28.0563 44.5237 27.27 44.3297C26.4938 44.1357 25.7279 44.0386 24.9722 44.0386C24.0735 44.0386 23.3841 44.248 22.9042 44.6667C22.4242 45.0854 22.1842 45.6318 22.1842 46.3058C22.1842 46.7245 22.2812 47.0922 22.4752 47.4087C22.6693 47.7151 22.9756 48.0164 23.3944 48.3125C23.8233 48.5985 24.8292 49.1193 26.4121 49.875C28.5057 50.8759 29.9405 51.8818 30.7167 52.8928C31.4928 53.8936 31.8809 55.1242 31.8809 56.5846Z" fill="white"/>
  <path d="M42.6652 48.6802C41.6746 48.6802 40.8984 48.9968 40.3368 49.6299C39.7751 50.2529 39.4534 51.1414 39.3717 52.2954H45.9281C45.9076 51.1414 45.6064 50.2529 45.0243 49.6299C44.4422 48.9968 43.6558 48.6802 42.6652 48.6802ZM43.3239 63.1103C40.5665 63.1103 38.4117 62.3495 36.8594 60.8279C35.3071 59.3062 34.531 57.1514 34.531 54.3634C34.531 51.4937 35.2459 49.2776 36.6756 47.7151C38.1156 46.1424 40.1019 45.356 42.6346 45.356C45.0549 45.356 46.9391 46.0454 48.2871 47.4241C49.6352 48.8027 50.3092 50.7074 50.3092 53.1379V55.4051H39.2645C39.3155 56.7327 39.7087 57.7692 40.444 58.5148C41.1793 59.2603 42.2107 59.633 43.5384 59.633C44.5698 59.633 45.5451 59.5258 46.4642 59.3113C47.3833 59.0969 48.3433 58.7547 49.3441 58.285V61.9002C48.5271 62.3087 47.654 62.6099 46.7246 62.804C45.7953 63.0082 44.6617 63.1103 43.3239 63.1103Z" fill="white"/>
  <path d="M69.917 62.804H65.2449V52.8009C65.2449 51.5652 65.0253 50.641 64.5861 50.0282C64.147 49.4053 63.4475 49.0938 62.4875 49.0938C61.1803 49.0938 60.2357 49.5329 59.6535 50.4112C59.0714 51.2793 58.7804 52.7243 58.7804 54.7464V62.804H54.1082V45.6777H57.6774L58.3055 47.8683H58.5659C59.0868 47.0411 59.8016 46.4181 60.7105 45.9994C61.6297 45.5705 62.6713 45.356 63.8355 45.356C65.827 45.356 67.3384 45.8973 68.3699 46.9798C69.4013 48.0521 69.917 49.6044 69.917 51.6367V62.804Z" fill="white"/>
  <path d="M86.6756 57.7182C86.6756 59.4747 86.0629 60.8125 84.8374 61.7317C83.6221 62.6508 81.7992 63.1103 79.3686 63.1103C78.1227 63.1103 77.0606 63.0235 76.1824 62.8499C75.3041 62.6865 74.482 62.4414 73.716 62.1146V58.2543C74.5841 58.6628 75.5594 59.0049 76.6419 59.2807C77.7346 59.5564 78.6946 59.6943 79.5218 59.6943C81.2171 59.6943 82.0647 59.2041 82.0647 58.2237C82.0647 57.8561 81.9524 57.5599 81.7277 57.3352C81.503 57.1003 81.1149 56.8399 80.5635 56.554C80.012 56.2578 79.2767 55.9157 78.3576 55.5276C77.0402 54.9761 76.07 54.4655 75.4471 53.9958C74.8343 53.526 74.385 52.9898 74.099 52.3873C73.8233 51.7746 73.6854 51.0239 73.6854 50.1355C73.6854 48.6138 74.2726 47.4394 75.4471 46.6122C76.6317 45.7748 78.3065 45.356 80.4716 45.356C82.5345 45.356 84.5412 45.8054 86.4918 46.7041L85.0825 50.0742C84.2246 49.7065 83.423 49.4053 82.6774 49.1704C81.9319 48.9355 81.1711 48.8181 80.395 48.8181C79.0163 48.8181 78.327 49.1908 78.327 49.9363C78.327 50.355 78.5465 50.7176 78.9857 51.0239C79.435 51.3303 80.4103 51.7848 81.9115 52.3873C83.2493 52.9286 84.2297 53.4341 84.8527 53.9038C85.4756 54.3736 85.9352 54.9149 86.2314 55.5276C86.5275 56.1404 86.6756 56.8706 86.6756 57.7182Z" fill="white"/>
  <path d="M101.198 62.804L100.294 60.4755H100.171C99.385 61.4661 98.5731 62.1555 97.7357 62.5435C96.9084 62.9214 95.8259 63.1103 94.4881 63.1103C92.8439 63.1103 91.5469 62.6406 90.5972 61.701C89.6576 60.7615 89.1879 59.4237 89.1879 57.6875C89.1879 55.8697 89.821 54.5319 91.0874 53.6741C92.3639 52.806 94.2839 52.326 96.8472 52.2341L99.819 52.1422V51.3916C99.819 49.6555 98.9305 48.7874 97.1535 48.7874C95.7851 48.7874 94.1766 49.201 92.3282 50.0282L90.781 46.8726C92.752 45.8411 94.9375 45.3254 97.3374 45.3254C99.6352 45.3254 101.397 45.8258 102.622 46.8266C103.848 47.8275 104.461 49.3491 104.461 51.3916V62.804H101.198ZM99.819 54.8689L98.0114 54.9302C96.6531 54.971 95.6421 55.2161 94.9783 55.6655C94.3145 56.1148 93.9826 56.7991 93.9826 57.7182C93.9826 59.0356 94.7383 59.6943 96.2498 59.6943C97.3323 59.6943 98.1952 59.3828 98.8386 58.7598C99.4922 58.1369 99.819 57.3097 99.819 56.2782V54.8689Z" fill="white"/>
  <path d="M116.501 59.3879C117.318 59.3879 118.298 59.2092 119.442 58.8518V62.3291C118.278 62.8499 116.848 63.1103 115.153 63.1103C113.284 63.1103 111.921 62.6406 111.063 61.701C110.215 60.7513 109.791 59.3317 109.791 57.4424V49.1857H107.555V47.2096L110.128 45.6471L111.476 42.0319H114.464V45.6777H119.258V49.1857H114.464V57.4424C114.464 58.1063 114.647 58.5965 115.015 58.913C115.393 59.2296 115.888 59.3879 116.501 59.3879Z" fill="white"/>
  <path d="M122.72 41.2507C122.72 39.729 123.568 38.9682 125.263 38.9682C126.958 38.9682 127.806 39.729 127.806 41.2507C127.806 41.9757 127.592 42.5425 127.163 42.951C126.744 43.3493 126.111 43.5485 125.263 43.5485C123.568 43.5485 122.72 42.7825 122.72 41.2507ZM127.592 62.804H122.919V45.6777H127.592V62.804Z" fill="white"/>
  <path d="M136.231 54.2102C136.231 55.9055 136.507 57.1871 137.059 58.0552C137.62 58.9232 138.529 59.3573 139.785 59.3573C141.031 59.3573 141.925 58.9284 142.466 58.0705C143.018 57.2025 143.293 55.9157 143.293 54.2102C143.293 52.515 143.018 51.2435 142.466 50.3959C141.915 49.5482 141.011 49.1244 139.755 49.1244C138.509 49.1244 137.61 49.5482 137.059 50.3959C136.507 51.2333 136.231 52.5047 136.231 54.2102ZM148.073 54.2102C148.073 56.9982 147.337 59.1786 145.867 60.7513C144.396 62.324 142.349 63.1103 139.724 63.1103C138.08 63.1103 136.63 62.7529 135.374 62.038C134.117 61.313 133.152 60.2764 132.478 58.9284C131.804 57.5803 131.467 56.0076 131.467 54.2102C131.467 51.412 132.197 49.2368 133.658 47.6845C135.118 46.1322 137.171 45.356 139.816 45.356C141.46 45.356 142.91 45.7135 144.166 46.4284C145.423 47.1432 146.388 48.1696 147.062 49.5074C147.736 50.8452 148.073 52.4128 148.073 54.2102Z" fill="white"/>
  <path d="M167.742 62.804H163.07V52.8009C163.07 51.5652 162.85 50.641 162.411 50.0282C161.972 49.4053 161.272 49.0938 160.312 49.0938C159.005 49.0938 158.06 49.5329 157.478 50.4112C156.896 51.2793 156.605 52.7243 156.605 54.7464V62.804H151.933V45.6777H155.502L156.13 47.8683H156.391C156.912 47.0411 157.626 46.4181 158.535 45.9994C159.454 45.5705 160.496 45.356 161.66 45.356C163.652 45.356 165.163 45.8973 166.195 46.9798C167.226 48.0521 167.742 49.6044 167.742 51.6367V62.804Z" fill="white"/>
  <path d="M35.6431 24.2353L33.8631 10.3383H33.7773C33.7273 10.853 33.6236 11.5607 33.4664 12.4614C33.3162 13.355 33.184 14.0663 33.0696 14.5953L31.0322 24.2353H29.2951L32.6085 8.55826H35.2249L36.8227 21.4688H36.9192L43.9857 8.55826H46.838L43.5889 24.2353H41.7231C42.6238 20.0176 43.3137 16.7828 43.7926 14.531C44.2716 12.272 44.6076 10.8673 44.8006 10.3168H44.7363L37.0479 24.2353H35.6431Z" fill="white"/>
  <path d="M52.0494 24.4498C50.734 24.4498 49.701 24.0602 48.9504 23.281C48.1998 22.5018 47.8245 21.4223 47.8245 20.0426C47.8245 18.6987 48.089 17.4119 48.618 16.1823C49.1542 14.9456 49.8619 13.9841 50.7412 13.2978C51.6205 12.6116 52.5891 12.2684 53.6471 12.2684C54.7409 12.2684 55.563 12.5079 56.1134 12.9869C56.6639 13.4587 56.9391 14.1199 56.9391 14.9706C56.9391 16.2574 56.3457 17.2689 55.1591 18.0053C53.9724 18.7344 52.2746 19.099 50.0656 19.099H49.7118L49.6689 19.9568C49.6689 20.8933 49.8869 21.6261 50.323 22.1551C50.7662 22.6769 51.4489 22.9379 52.3711 22.9379C52.8214 22.9379 53.2825 22.8735 53.7543 22.7448C54.2333 22.6162 54.8266 22.3803 55.5344 22.0371V23.6027C54.8624 23.9172 54.2691 24.1353 53.7543 24.2568C53.2396 24.3855 52.6713 24.4498 52.0494 24.4498ZM53.5399 13.8018C52.8036 13.8018 52.1101 14.1378 51.4596 14.8098C50.8162 15.4818 50.323 16.4147 49.9798 17.6085H50.1085C51.7384 17.6085 52.9859 17.3976 53.8509 16.9758C54.723 16.5469 55.1591 15.9286 55.1591 15.1208C55.1591 14.7419 55.0268 14.4273 54.7623 14.1771C54.505 13.9269 54.0975 13.8018 53.5399 13.8018Z" fill="white"/>
  <path d="M64.4559 12.2899C65.8428 12.2899 66.8472 12.969 67.4691 14.3273H67.5763C67.6979 13.2192 67.8587 12.2398 68.0589 11.3891L68.8953 7.55029H70.6753L67.1367 24.2353H65.6462L65.8821 21.9942H65.7963C65.0743 22.8878 64.3988 23.5205 63.7697 23.8922C63.1406 24.2639 62.4901 24.4498 61.8181 24.4498C60.8244 24.4498 60.0488 24.0995 59.4912 23.3989C58.9336 22.6984 58.6548 21.7262 58.6548 20.4823C58.6548 18.9525 58.9121 17.5513 59.4268 16.2788C59.9415 15.0064 60.635 14.0234 61.5071 13.33C62.3864 12.6366 63.3693 12.2899 64.4559 12.2899ZM62.4186 22.9593C63.0905 22.9593 63.784 22.6269 64.4988 21.9621C65.2137 21.2901 65.7785 20.4358 66.1931 19.3993C66.6148 18.3555 66.8257 17.294 66.8257 16.2145C66.8257 15.421 66.6327 14.8169 66.2467 14.4023C65.8607 13.9877 65.2995 13.7804 64.5632 13.7804C63.8412 13.7804 63.1692 14.077 62.5472 14.6704C61.9325 15.2566 61.4356 16.0858 61.0567 17.1581C60.685 18.2233 60.4991 19.3456 60.4991 20.5252C60.4991 22.1479 61.1389 22.9593 62.4186 22.9593Z" fill="white"/>
  <path d="M72.7127 24.2353H70.9112L73.4204 12.4829H75.2219L72.7127 24.2353ZM73.9244 9.48044C73.9244 9.08011 74.0388 8.75485 74.2675 8.50464C74.4963 8.24729 74.793 8.11861 75.1575 8.11861C75.7866 8.11861 76.1012 8.44031 76.1012 9.08369C76.1012 9.47687 75.9796 9.80928 75.7366 10.0809C75.5007 10.3526 75.2254 10.4884 74.9109 10.4884C74.625 10.4884 74.389 10.4026 74.2032 10.2311C74.0173 10.0523 73.9244 9.80213 73.9244 9.48044Z" fill="white"/>
  <path d="M82.7066 12.2684C83.3642 12.2684 83.9504 12.4471 84.4651 12.8046C84.9798 13.1549 85.3802 13.6624 85.6661 14.3273H85.7841L86.5025 12.4829H87.8643L85.3659 24.2353H83.9397L84.2185 21.9942H84.1327C82.8531 23.6313 81.5056 24.4498 80.0901 24.4498C79.0965 24.4498 78.3173 24.0959 77.7525 23.3882C77.1878 22.6805 76.9054 21.7119 76.9054 20.4823C76.9054 18.9953 77.1592 17.6157 77.6667 16.3432C78.1743 15.0707 78.8749 14.0735 79.7684 13.3515C80.662 12.6294 81.6414 12.2684 82.7066 12.2684ZM80.6692 22.9593C81.3626 22.9593 82.0525 22.6305 82.7387 21.9728C83.425 21.308 83.9826 20.4465 84.4115 19.3885C84.8404 18.3234 85.0549 17.2582 85.0549 16.1931C85.0549 15.4567 84.8547 14.8706 84.4544 14.4345C84.0541 13.9984 83.5286 13.7804 82.8781 13.7804C82.1347 13.7804 81.4412 14.0878 80.7979 14.7026C80.1616 15.3173 79.6612 16.1502 79.2966 17.201C78.932 18.2519 78.7498 19.3599 78.7498 20.5252C78.7498 21.3401 78.9177 21.9513 79.2537 22.3588C79.5897 22.7591 80.0615 22.9593 80.6692 22.9593Z" fill="white"/>
  <path d="M103.767 19.6888C103.767 21.1971 103.263 22.3695 102.255 23.2059C101.254 24.0352 99.842 24.4498 98.0191 24.4498C97.2613 24.4498 96.5929 24.3962 96.0138 24.289C95.442 24.1889 94.9022 24.0173 94.3947 23.7743V21.9513C95.5528 22.5518 96.768 22.8521 98.0405 22.8521C99.1986 22.8521 100.117 22.584 100.796 22.0478C101.475 21.5045 101.815 20.7611 101.815 19.8174C101.815 19.2599 101.626 18.7702 101.247 18.3484C100.875 17.9195 100.178 17.4155 99.1557 16.8364C98.0762 16.2288 97.3256 15.6212 96.9039 15.0135C96.4892 14.4059 96.2819 13.6874 96.2819 12.8582C96.2819 11.5214 96.7537 10.4348 97.6974 9.59839C98.641 8.75485 99.8813 8.33307 101.418 8.33307C102.126 8.33307 102.784 8.40099 103.391 8.53681C104.006 8.67264 104.653 8.90497 105.332 9.23381L104.624 10.8423C104.153 10.5706 103.624 10.3562 103.037 10.1989C102.451 10.0416 101.912 9.96298 101.418 9.96298C100.46 9.96298 99.6883 10.2132 99.1021 10.7136C98.523 11.2068 98.2335 11.8788 98.2335 12.7295C98.2335 13.1156 98.2943 13.448 98.4158 13.7268C98.5373 13.9984 98.7303 14.2558 98.9949 14.4988C99.2594 14.7419 99.7669 15.0814 100.518 15.5175C101.568 16.1466 102.276 16.6399 102.641 16.9973C103.012 17.3547 103.291 17.7515 103.477 18.1875C103.67 18.6165 103.767 19.1169 103.767 19.6888Z" fill="white"/>
  <path d="M110.426 24.4498C109.039 24.4498 107.963 24.0673 107.198 23.3024C106.433 22.5375 106.051 21.4581 106.051 20.0641C106.051 18.6343 106.315 17.3154 106.844 16.1073C107.373 14.8991 108.102 13.9591 109.032 13.2871C109.968 12.608 111.019 12.2684 112.184 12.2684C113.164 12.2684 114.121 12.4507 115.058 12.8153L114.554 14.3273C113.696 13.9627 112.913 13.7804 112.206 13.7804C111.405 13.7804 110.672 14.0556 110.007 14.6061C109.35 15.1494 108.831 15.9107 108.453 16.8901C108.081 17.8623 107.895 18.9203 107.895 20.0641C107.895 20.9791 108.131 21.6904 108.603 22.198C109.082 22.7055 109.739 22.9593 110.576 22.9593C111.09 22.9593 111.577 22.8878 112.034 22.7448C112.492 22.6019 112.942 22.4339 113.385 22.2409V23.7743C112.499 24.2246 111.512 24.4498 110.426 24.4498Z" fill="white"/>
  <path d="M122.703 24.2353L124.29 16.815C124.419 16.143 124.484 15.6605 124.484 15.3674C124.484 14.3094 123.958 13.7804 122.907 13.7804C122.271 13.7804 121.649 13.9913 121.041 14.413C120.441 14.8348 119.908 15.4496 119.444 16.2574C118.986 17.0581 118.639 18.0267 118.404 19.1633L117.321 24.2353H115.519L119.058 7.55029H120.859C120.73 8.13649 120.605 8.70481 120.484 9.25526C120.369 9.80571 120.248 10.3669 120.119 10.9388C119.998 11.5035 119.862 12.0969 119.712 12.7188C119.569 13.3407 119.401 14.0163 119.208 14.7455H119.326C119.998 13.8662 120.659 13.2371 121.309 12.8582C121.967 12.4793 122.653 12.2899 123.368 12.2899C124.305 12.2899 125.027 12.5472 125.534 13.0619C126.049 13.5766 126.306 14.3058 126.306 15.2494C126.306 15.6927 126.224 16.286 126.06 17.0295C125.781 18.4092 125.263 20.8111 124.505 24.2353H122.703Z" fill="white"/>
  <path d="M134.456 12.3328C135.814 12.3328 136.886 12.7367 137.673 13.5445C138.459 14.3451 138.852 15.4496 138.852 16.8579C138.852 18.2018 138.595 19.4707 138.08 20.6646C137.566 21.8584 136.869 22.7806 135.989 23.4311C135.11 24.0816 134.116 24.4069 133.008 24.4069C131.636 24.4069 130.56 24.003 129.781 23.1952C129.001 22.3874 128.612 21.2829 128.612 19.8818C128.612 18.5235 128.873 17.2475 129.395 16.0537C129.917 14.8527 130.621 13.9341 131.507 13.2978C132.394 12.6545 133.376 12.3328 134.456 12.3328ZM136.987 16.6113C136.987 15.7892 136.761 15.1243 136.311 14.6168C135.868 14.1021 135.264 13.8447 134.499 13.8447C133.72 13.8447 133.019 14.1092 132.397 14.6382C131.782 15.1672 131.303 15.9035 130.96 16.8472C130.624 17.7836 130.456 18.8274 130.456 19.9783C130.456 20.9148 130.681 21.6404 131.132 22.1551C131.589 22.6626 132.243 22.9164 133.094 22.9164C133.838 22.9164 134.506 22.6555 135.099 22.1336C135.693 21.6118 136.154 20.8719 136.483 19.914C136.819 18.9489 136.987 17.848 136.987 16.6113Z" fill="white"/>
  <path d="M146.787 12.3328C148.146 12.3328 149.218 12.7367 150.004 13.5445C150.791 14.3451 151.184 15.4496 151.184 16.8579C151.184 18.2018 150.927 19.4707 150.412 20.6646C149.897 21.8584 149.2 22.7806 148.321 23.4311C147.442 24.0816 146.448 24.4069 145.34 24.4069C143.967 24.4069 142.891 24.003 142.112 23.1952C141.333 22.3874 140.943 21.2829 140.943 19.8818C140.943 18.5235 141.204 17.2475 141.726 16.0537C142.248 14.8527 142.952 13.9341 143.839 13.2978C144.725 12.6545 145.708 12.3328 146.787 12.3328ZM149.318 16.6113C149.318 15.7892 149.093 15.1243 148.643 14.6168C148.199 14.1021 147.595 13.8447 146.83 13.8447C146.051 13.8447 145.351 14.1092 144.729 14.6382C144.114 15.1672 143.635 15.9035 143.292 16.8472C142.956 17.7836 142.788 18.8274 142.788 19.9783C142.788 20.9148 143.013 21.6404 143.463 22.1551C143.921 22.6626 144.575 22.9164 145.426 22.9164C146.169 22.9164 146.837 22.6555 147.431 22.1336C148.024 21.6118 148.485 20.8719 148.814 19.914C149.15 18.9489 149.318 17.848 149.318 16.6113Z" fill="white"/>
  <path d="M154.637 24.2353H152.835L156.395 7.55029H158.197L154.637 24.2353Z" fill="white"/>
</svg>
