<svg width="48" height="50" viewBox="0 0 48 50" fill="none" xmlns="http://www.w3.org/2000/svg">
  <g clip-path="url(#clip0)">
    <path d="M33.6092 14.3919C33.6092 13.7446 32.9878 13.0973 32.3664 13.0973H29.164C28.5426 13.0973 27.9212 13.7446 27.9212 14.3919V22.1608H20.4137V14.3919C20.4137 13.7446 19.8883 13.0973 19.2189 13.0973H15.9679C15.3465 13.0973 14.7251 13.7446 14.7251 14.3426V36.952C14.7251 37.0513 14.8204 37.1007 14.8684 37.1007H19.1716C19.793 37.1007 20.4144 36.4541 20.4144 35.8068V27.9878H27.9206V35.7568C27.9206 36.4041 28.542 37.0513 29.1634 37.0513H32.4144C33.0358 37.0513 33.6572 36.4041 33.6572 35.7568V34.6608C33.6092 32.4203 33.6092 14.3919 33.6092 14.3919Z" fill="url(#paint0_linear)"/>
    <path d="M24 0C10.7572 0 0 11.2054 0 25C0 38.7946 10.7572 50 24 50C37.2428 50 48 38.7946 48 25C48.0473 11.2054 37.2428 0 24 0ZM24.048 44.6216C20.9403 44.6216 17.9766 43.8243 15.3944 42.4304H9.84843C9.79878 42.4269 9.75203 42.4048 9.71684 42.3682C9.68165 42.3315 9.66042 42.2828 9.65708 42.2311V37.65C6.88476 34.2628 5.25924 29.8304 5.25924 25.05C5.25924 14.2432 13.7209 5.42838 24.096 5.42838C34.4698 5.42838 42.9321 14.2432 42.9321 25.05C42.8368 35.8068 34.4218 44.6216 24.048 44.6216Z" fill="url(#paint1_linear)"/>
  </g>
  <defs>
    <linearGradient id="paint0_linear" x1="1.87212" y1="25.8986" x2="23.4132" y2="-3.9068" gradientUnits="userSpaceOnUse">
      <stop stop-color="#62BB46"/>
      <stop offset="1" stop-color="#D2DE26"/>
    </linearGradient>
    <linearGradient id="paint1_linear" x1="-12.5015" y1="25.9714" x2="22.9885" y2="-23.1352" gradientUnits="userSpaceOnUse">
      <stop stop-color="#62BB46"/>
      <stop offset="1" stop-color="#D2DE26"/>
    </linearGradient>
    <clipPath id="clip0">
      <rect width="48" height="50" fill="white"/>
    </clipPath>
  </defs>
</svg>
