<svg width="43" height="43" viewBox="0 0 43 43" fill="none" xmlns="http://www.w3.org/2000/svg">
  <path d="M24.0101 24.0046C23.5767 24.0046 23.1674 24.2437 22.7819 24.725V21.8242H21.5718V30.703H22.7819V30.0545C23.1793 30.5477 23.5886 30.7929 24.0101 30.7929C24.505 30.7929 24.8244 30.5415 24.9684 30.0365C25.0525 29.784 25.0943 29.3459 25.0943 28.7216V26.0924C25.0943 25.4558 25.0525 25.012 24.9684 24.761C24.8244 24.256 24.505 24.0046 24.0101 24.0046ZM23.9022 28.8126C23.9022 29.4014 23.7283 29.6941 23.3789 29.6941C23.1731 29.6941 22.9739 29.5985 22.7819 29.4072V25.3724C22.9739 25.1811 23.1731 25.0854 23.3789 25.0854C23.7268 25.0854 23.9022 25.3842 23.9022 25.9849V28.8126Z" fill="white"/>
  <path d="M27.8422 24.0044C27.2272 24.0044 26.7457 24.2332 26.3963 24.6888C26.1548 25.0118 26.0347 25.529 26.0347 26.2372V28.5614C26.0347 29.2681 26.161 29.7838 26.4144 30.1094C26.7638 30.5654 27.251 30.7938 27.8779 30.7938C28.5168 30.7938 28.9982 30.5536 29.3238 30.0723C29.4693 29.8569 29.5591 29.6162 29.5952 29.3519C29.619 29.1843 29.6313 28.926 29.6313 28.5779V28.4164H28.4016V28.8017C28.4016 28.9287 28.3985 29.0274 28.3939 29.1009C28.3866 29.1709 28.3851 29.2145 28.3851 29.2264C28.3114 29.5386 28.1313 29.6939 27.8422 29.6939C27.4326 29.6939 27.2287 29.3878 27.2287 28.7749V27.605H29.6313V26.2357C29.6313 25.5409 29.5054 25.0236 29.2516 24.6877C28.9264 24.2332 28.4569 24.0044 27.8422 24.0044ZM28.4208 26.6156H27.2272V26.0027C27.2272 25.3898 27.4268 25.0852 27.8242 25.0852C28.2215 25.0852 28.4208 25.3898 28.4208 26.0027V26.6156Z" fill="white"/>
  <path d="M19.3295 29.1364C19.0653 29.5087 18.8119 29.6938 18.5704 29.6938C18.4027 29.6938 18.3109 29.6043 18.3005 29.4233C18.2871 29.4011 18.2825 29.2443 18.2825 28.9558V24.0942H17.0889V29.3158C17.0889 29.7734 17.1246 30.0959 17.1983 30.2888C17.3062 30.625 17.5596 30.7926 17.9569 30.7926C18.4027 30.7926 18.8599 30.5221 19.3295 29.9823V30.7027H20.5412V24.0942H19.3295V29.1364Z" fill="white"/>
  <path d="M20.9028 17.3052C21.2883 17.3052 21.4818 16.9987 21.4818 16.3858V13.5764C21.4818 12.9532 21.2883 12.6406 20.9028 12.6406C20.5173 12.6406 20.3242 12.9532 20.3242 13.5764V16.3858C20.3242 16.9987 20.5173 17.3052 20.9028 17.3052Z" fill="white"/>
  <path d="M12.7158 23.0856H14.1256V30.703H15.4632V23.0856H16.9091V21.8242H12.7158V23.0856Z" fill="white"/>
  <path d="M29.8487 7.65283H12.5001C11.0661 7.65283 9.8395 8.16091 8.82132 9.17439C7.80275 10.189 7.29443 11.4114 7.29443 12.8404V30.1269C7.29443 31.5559 7.80275 32.7783 8.82132 33.7918C9.8395 34.8064 11.0646 35.3145 12.5001 35.3145H29.8487C31.2811 35.3145 32.5078 34.8064 33.526 33.7918C34.543 32.7783 35.0529 31.5559 35.0529 30.1269V12.8404C35.0529 11.4114 34.543 10.189 33.526 9.17439C32.5078 8.16091 31.2811 7.65283 29.8487 7.65283ZM23.6863 11.6505H24.8968V16.5496C24.8968 16.8365 24.9025 16.9934 24.9148 17.0175C24.9267 17.2103 25.0227 17.306 25.2039 17.306C25.4439 17.306 25.6977 17.1204 25.963 16.747V11.6505H27.1731V18.3145H25.963V17.5929C25.4681 18.1339 25.0047 18.4044 24.5712 18.4044C24.1858 18.4044 23.9262 18.2414 23.7945 17.9185C23.7224 17.7019 23.6847 17.3718 23.6847 16.9276V11.6505H23.6863ZM19.1137 13.8118C19.1137 13.1155 19.2396 12.5936 19.493 12.2454C19.8186 11.7898 20.2881 11.561 20.9028 11.561C21.4921 11.561 21.9617 11.7898 22.311 12.2454C22.5644 12.5936 22.6907 13.1155 22.6907 13.8118V16.1536C22.6907 16.8725 22.5644 17.3955 22.311 17.7199C21.9617 18.1756 21.4921 18.4044 20.9028 18.4044C20.2881 18.4044 19.8186 18.1756 19.493 17.7199C19.2396 17.3718 19.1137 16.8499 19.1137 16.1536V13.8118ZM15.8606 9.36416L16.8193 12.8763L17.74 9.36416H19.0956L17.4685 14.6948V18.3145H16.1325V14.6948C15.9989 14.0344 15.7228 13.0852 15.3001 11.8495C15.216 11.5729 15.0767 11.1589 14.8847 10.606C14.6912 10.0547 14.5472 9.64077 14.4512 9.36416H15.8606ZM30.7517 31.0999C30.6315 31.6171 30.3751 32.0548 29.9838 32.4152C29.5922 32.7752 29.138 32.986 28.619 33.0457C26.9692 33.2252 24.4871 33.3147 21.1742 33.3147C17.8601 33.3147 15.3796 33.2252 13.7283 33.0457C13.2108 32.986 12.755 32.7752 12.3634 32.4152C11.9722 32.0548 11.7173 31.6171 11.5956 31.0999C11.3556 30.0929 11.2343 28.5312 11.2343 26.4177C11.2343 24.3418 11.3556 22.7801 11.5956 21.7356C11.7173 21.208 11.9738 20.7673 12.3634 20.413C12.755 20.0587 13.2169 19.851 13.7464 19.7913C15.3853 19.6103 17.8613 19.5208 21.1742 19.5208C24.499 19.5208 26.9811 19.6103 28.619 19.7913C29.138 19.851 29.5953 20.0572 29.9927 20.413C30.3916 20.7673 30.6496 21.208 30.7697 21.7356C30.9989 22.7322 31.113 24.2924 31.113 26.4177C31.113 28.5312 30.9932 30.0929 30.7517 31.0999Z" fill="white"/>
</svg>
