<svg width="24" height="24" viewBox="0 0 24 24" fill="none" xmlns="http://www.w3.org/2000/svg">
  <path d="M5.50344 12.8928V11.5824C5.50344 11.3856 5.66184 11.2272 5.85864 11.2272H7.16904C7.36584 11.2272 7.52424 11.3856 7.52424 11.5824V12.8928C7.52424 13.0896 7.36584 13.248 7.16904 13.248H5.85864C5.66184 13.2432 5.50344 13.0848 5.50344 12.8928ZM8.59464 13.2432H9.90504C10.1018 13.2432 10.2602 13.0848 10.2602 12.888V11.5776C10.2602 11.3808 10.1018 11.2224 9.90504 11.2224H8.59464C8.39784 11.2224 8.23944 11.3808 8.23944 11.5776V12.888C8.24424 13.0848 8.40264 13.2432 8.59464 13.2432ZM11.3354 13.2432H12.6458C12.8426 13.2432 13.001 13.0848 13.001 12.888V11.5776C13.001 11.3808 12.8426 11.2224 12.6458 11.2224H11.3354C11.1386 11.2224 10.9802 11.3808 10.9802 11.5776V12.888C10.985 13.0848 11.1434 13.2432 11.3354 13.2432ZM8.59464 15.912H9.90504C10.1018 15.912 10.2602 15.7536 10.2602 15.5568V14.2464C10.2602 14.0496 10.1018 13.8912 9.90504 13.8912H8.59464C8.39784 13.8912 8.23944 14.0496 8.23944 14.2464V15.5568C8.24424 15.7536 8.40264 15.912 8.59464 15.912ZM11.3354 15.912H12.6458C12.8426 15.912 13.001 15.7536 13.001 15.5568V14.2464C13.001 14.0496 12.8426 13.8912 12.6458 13.8912H11.3354C11.1386 13.8912 10.9802 14.0496 10.9802 14.2464V15.5568C10.985 15.7536 11.1434 15.912 11.3354 15.912ZM14.0762 15.912H15.3866C15.5834 15.912 15.7418 15.7536 15.7418 15.5568V14.2464C15.7418 14.0496 15.5834 13.8912 15.3866 13.8912H14.0762C13.8794 13.8912 13.721 14.0496 13.721 14.2464V15.5568C13.721 15.7536 13.8794 15.912 14.0762 15.912ZM5.85864 15.912H7.16904C7.36584 15.912 7.52424 15.7536 7.52424 15.5568V14.2464C7.52424 14.0496 7.36584 13.8912 7.16904 13.8912H5.85864C5.66184 13.8912 5.50344 14.0496 5.50344 14.2464V15.5568C5.50344 15.7536 5.66184 15.912 5.85864 15.912ZM11.3354 18.576H12.6458C12.8426 18.576 13.001 18.4176 13.001 18.2208V16.9104C13.001 16.7136 12.8426 16.5552 12.6458 16.5552H11.3354C11.1386 16.5552 10.9802 16.7136 10.9802 16.9104V18.2208C10.985 18.4176 11.1434 18.576 11.3354 18.576ZM8.59464 18.576H9.90504C10.1018 18.576 10.2602 18.4176 10.2602 18.2208V16.9104C10.2602 16.7136 10.1018 16.5552 9.90504 16.5552H8.59464C8.39784 16.5552 8.23944 16.7136 8.23944 16.9104V18.2208C8.24424 18.4176 8.40264 18.576 8.59464 18.576ZM14.0762 13.2432H15.3866C15.5834 13.2432 15.7418 13.0848 15.7418 12.888V11.5776C15.7418 11.3808 15.5834 11.2224 15.3866 11.2224H14.0762C13.8794 11.2224 13.721 11.3808 13.721 11.5776V12.888C13.721 13.0848 13.8794 13.2432 14.0762 13.2432ZM16.8122 15.912H18.1226C18.3194 15.912 18.4778 15.7536 18.4778 15.5568V14.2464C18.4778 14.0496 18.3194 13.8912 18.1226 13.8912H16.8122C16.6154 13.8912 16.457 14.0496 16.457 14.2464V15.5568C16.4618 15.7536 16.6202 15.912 16.8122 15.912ZM14.0762 18.576H15.3866C15.5834 18.576 15.7418 18.4176 15.7418 18.2208V16.9104C15.7418 16.7136 15.5834 16.5552 15.3866 16.5552H14.0762C13.8794 16.5552 13.721 16.7136 13.721 16.9104V18.2208C13.721 18.4176 13.8794 18.576 14.0762 18.576ZM2.58984 19.3632V6.72C2.58984 5.5872 3.51144 4.6656 4.64424 4.6656H6.94824V3.3888C6.94824 2.976 7.28424 2.64 7.69704 2.64H8.86824C9.28104 2.64 9.61704 2.976 9.61704 3.3888V4.6608H14.3402V3.3888C14.3402 2.976 14.6762 2.64 15.089 2.64H16.2602C16.673 2.64 17.009 2.976 17.009 3.3888V4.6608H19.313C20.4458 4.6608 21.3674 5.5824 21.3674 6.7152V19.3632C21.3674 20.496 20.4458 21.4176 19.313 21.4176H4.64424C3.51144 21.4176 2.58984 20.496 2.58984 19.3632ZM4.17864 19.3632C4.17864 19.6224 4.38984 19.8336 4.64904 19.8336H19.313C19.5722 19.8336 19.7834 19.6224 19.7834 19.3632V9.9984H4.18344V19.3632H4.17864Z" fill="#9D9C9C"/>
</svg>
