<svg width="24" height="24" viewBox="0 0 24 24" fill="none" xmlns="http://www.w3.org/2000/svg">
  <path d="M12 1.98334C6.475 1.98334 2 6.45834 2 11.9833C2 17.5083 6.475 21.9833 12 21.9833C17.525 21.9833 22 17.5083 22 11.9833C22 6.45834 17.525 1.98334 12 1.98334ZM16.325 13.8833H12.0833C12.0667 13.8833 12.0583 13.8833 12.0417 13.8833C12.025 13.8833 12.0167 13.8833 12 13.8833C11.6167 13.8833 11.3083 13.575 11.3083 13.1917V6.13334C11.3083 5.75 11.6167 5.44167 12 5.44167C12.3833 5.44167 12.6917 5.75 12.6917 6.13334V12.5H16.325C16.7083 12.5 17.0167 12.8083 17.0167 13.1917C17.0167 13.575 16.7083 13.8833 16.325 13.8833Z" fill="#9D9C9C"/>
</svg>
