<svg width="28" height="27" viewBox="0 0 28 27" fill="none" xmlns="http://www.w3.org/2000/svg">
  <path d="M14 8.33203C11.0447 8.33203 8.64062 10.6502 8.64062 13.5C8.64062 16.3498 11.0447 18.668 14 18.668C16.9553 18.668 19.3594 16.3498 19.3594 13.5C19.3594 10.6502 16.9553 8.33203 14 8.33203ZM22.6953 2.10938H19.8663C23.1454 2.10938 25.8125 4.68176 25.8125 7.84318V19.1568C25.8125 22.3188 23.1454 24.8906 19.8663 24.8906H8.13367C4.85516 24.8906 2.1875 22.3188 2.1875 19.1568V7.84318C2.1875 4.68176 4.85516 2.10938 8.13367 2.10938H4.86719C3.05484 2.10938 1.58594 3.52582 1.58594 5.27344V22.4648C1.58594 24.2125 3.05484 25.6289 4.86719 25.6289H22.6953C24.5077 25.6289 25.9766 24.2125 25.9766 22.4648V5.27344C25.9766 3.52582 24.5077 2.10938 22.6953 2.10938ZM14 8.33203C11.0447 8.33203 8.64062 10.6502 8.64062 13.5C8.64062 16.3498 11.0447 18.668 14 18.668C16.9553 18.668 19.3594 16.3498 19.3594 13.5C19.3594 10.6502 16.9553 8.33203 14 8.33203ZM14 8.33203C11.0447 8.33203 8.64062 10.6502 8.64062 13.5C8.64062 16.3498 11.0447 18.668 14 18.668C16.9553 18.668 19.3594 16.3498 19.3594 13.5C19.3594 10.6502 16.9553 8.33203 14 8.33203Z" fill="white"/>
  <path d="M19.8663 0H8.13367C3.64875 0 0 3.51844 0 7.84318V19.1568C0 23.4816 3.64875 27 8.13367 27H19.8663C24.3512 27 28 23.4816 28 19.1568V7.84318C28 3.51844 24.3512 0 19.8663 0ZM19.8663 2.10938C23.1454 2.10938 25.8125 4.68176 25.8125 7.84318V19.1568C25.8125 22.3188 23.1454 24.8906 19.8663 24.8906H8.13367C4.85516 24.8906 2.1875 22.3188 2.1875 19.1568V7.84318C2.1875 4.68176 4.85516 2.10938 8.13367 2.10938H19.8663Z" fill="white"/>
  <path d="M19.8663 2.10938H8.13367C4.85516 2.10938 2.1875 4.68176 2.1875 7.84318V19.1568C2.1875 22.3188 4.85516 24.8906 8.13367 24.8906H19.8663C23.1454 24.8906 25.8125 22.3188 25.8125 19.1568V7.84318C25.8125 4.68176 23.1454 2.10938 19.8663 2.10938ZM14 20.7773C9.83883 20.7773 6.45312 17.5126 6.45312 13.5C6.45312 9.48744 9.83883 6.22266 14 6.22266C18.1612 6.22266 21.5469 9.48744 21.5469 13.5C21.5469 17.5126 18.1612 20.7773 14 20.7773ZM21.6562 7.17188C21.052 7.17188 20.5625 6.6999 20.5625 6.11719C20.5625 5.53447 21.052 5.0625 21.6562 5.0625C22.2605 5.0625 22.75 5.53447 22.75 6.11719C22.75 6.6999 22.2605 7.17188 21.6562 7.17188Z" fill="white"/>
</svg>
