<svg width="16" height="22" viewBox="0 0 16 22" fill="none" xmlns="http://www.w3.org/2000/svg">
  <path d="M13.1847 2.1484C11.7525 0.715982 10.0241 0 7.9998 0C5.97542 0 4.24717 0.716133 2.8149 2.1484C1.38269 3.58061 0.666504 5.30891 0.666504 7.3333C0.666504 8.37421 0.824028 9.22871 1.13903 9.89713L6.36692 20.9833C6.5102 21.2982 6.73229 21.5464 7.03304 21.7277C7.33384 21.9091 7.65606 22 7.9999 22C8.34365 22 8.66602 21.9091 8.96677 21.7277C9.26757 21.5464 9.49417 21.2982 9.64698 20.9833L14.8602 9.89713C15.1754 9.22871 15.333 8.37416 15.333 7.3333C15.3333 5.30891 14.6172 3.58081 13.1847 2.1484ZM10.5921 9.92577C9.87609 10.6418 9.01202 10.9999 7.9998 10.9999C6.98759 10.9999 6.12351 10.6418 5.40728 9.92577C4.69114 9.20954 4.333 8.34547 4.333 7.33325C4.333 6.32113 4.69114 5.45691 5.40728 4.74087C6.12351 4.02474 6.98774 3.6666 7.9998 3.6666C9.01202 3.6666 9.87609 4.02474 10.5921 4.74087C11.3082 5.45686 11.6664 6.32113 11.6664 7.33325C11.6664 8.34537 11.3083 9.20939 10.5921 9.92577Z" fill="white" fill-opacity="0.6"/>
</svg>
