<svg width="31" height="31" viewBox="0 0 31 31" fill="none" xmlns="http://www.w3.org/2000/svg">
  <path d="M21.6554 19.3959C20.8768 18.6273 19.9047 18.6273 19.1309 19.3959C18.5407 19.9813 17.9505 20.5664 17.3702 21.1618C17.2113 21.3254 17.0774 21.3601 16.8841 21.2509C16.5022 21.0426 16.0953 20.874 15.7284 20.6459C14.0171 19.5696 12.5836 18.1858 11.314 16.6282C10.6841 15.8544 10.1234 15.0262 9.73159 14.0938C9.65242 13.9053 9.66718 13.7813 9.82094 13.6275C10.4112 13.0569 10.9866 12.4718 11.5669 11.8864C12.3753 11.0729 12.3753 10.1207 11.562 9.30228C11.1007 8.8361 10.6393 8.37978 10.1782 7.9136C9.70202 7.43744 9.23076 6.9562 8.74951 6.48494C7.97092 5.72618 6.99876 5.72618 6.22494 6.49002C5.62968 7.07536 5.05934 7.67552 4.45434 8.2507C3.89368 8.7816 3.61102 9.43136 3.55144 10.1902C3.45726 11.4253 3.75976 12.5907 4.1865 13.7266C5.05934 16.0778 6.38868 18.1659 8.00068 20.0804C10.1782 22.6696 12.7771 24.718 15.8175 26.1961C17.1866 26.8607 18.6051 27.3717 20.1476 27.4559C21.2091 27.5155 22.1316 27.2477 22.8708 26.4194C23.3767 25.8539 23.947 25.338 24.4828 24.7974C25.2764 23.9939 25.2813 23.0218 24.4927 22.2281C23.5503 21.2807 22.6029 20.3383 21.6554 19.3959Z" fill="white" fill-opacity="0.6"/>
  <path d="M20.7084 15.4426L22.5386 15.1302C22.2509 13.4487 21.4572 11.9261 20.2519 10.7158C18.9772 9.44123 17.3652 8.63765 15.5895 8.38965L15.3315 10.2297C16.7055 10.4232 17.9554 11.0432 18.9426 12.0302C19.875 12.9626 20.485 14.1432 20.7084 15.4426Z" fill="white" fill-opacity="0.6"/>
  <path d="M23.5703 7.48669C21.4572 5.37385 18.7837 4.03961 15.8326 3.62793L15.5747 5.46803C18.1242 5.82527 20.4354 6.98077 22.2608 8.80127C23.9917 10.5322 25.1276 12.7196 25.5393 15.1253L27.3695 14.8126C26.8885 12.0253 25.5741 9.49561 23.5703 7.48669Z" fill="white" fill-opacity="0.6"/>
</svg>
