<svg width="86" height="86" viewBox="0 0 86 86" fill="none" xmlns="http://www.w3.org/2000/svg">
  <path d="M75.7302 19.3696C75.7302 17.8283 74.7644 16.5154 73.4062 15.9951V1.29126C73.4062 0.578049 72.8275 0 72.1149 0C71.4017 0 70.823 0.578049 70.823 1.29126V15.9957C69.4648 16.5161 68.499 17.8283 68.499 19.3696C68.499 20.9108 69.4648 22.2231 70.823 22.7434V26.7726C70.823 27.4859 71.4017 28.0639 72.1149 28.0639C72.8275 28.0639 73.4062 27.4859 73.4062 26.7726V22.7434C74.7644 22.2231 75.7302 20.9108 75.7302 19.3696Z" fill="#FFD664"/>
  <path d="M73.9136 16.2359C74.2187 16.7661 74.3958 17.3795 74.3958 18.035C74.3958 20.0316 72.7771 21.6509 70.7805 21.6509C70.1244 21.6509 69.5116 21.4738 68.9814 21.1687C69.6054 22.2533 70.7733 22.9848 72.1145 22.9848C74.1117 22.9848 75.7304 21.3662 75.7304 19.3696C75.7304 18.0284 74.9988 16.8605 73.9136 16.2359Z" fill="#F9C646"/>
  <path d="M74.6978 0H11.3381C10.6249 0 10.0469 0.578049 10.0469 1.29126C10.0469 2.00447 10.6249 2.58252 11.3381 2.58252H22.3571V19.0251H63.6788V2.58252H74.6978C75.411 2.58252 75.989 2.00447 75.989 1.29126C75.989 0.578049 75.4103 0 74.6978 0Z" fill="#636363"/>
  <path d="M32.6876 57.5916L17.9818 61.6767C12.0203 63.3327 7.89453 68.7602 7.89453 74.9475V84.3203C7.89453 85.2481 8.64645 86 9.57422 86H76.4612C77.389 86 78.1409 85.2481 78.1409 84.3203V74.9475C78.1409 68.7602 74.0152 63.3327 68.0536 61.6767L53.3478 57.5916H32.6876Z" fill="#DDF5FF"/>
  <path d="M46.2881 69.9879L48.3549 80.3186L43.0173 86L37.6797 80.3186L39.7458 69.9879H46.2881Z" fill="#FF6969"/>
  <path d="M48.3552 80.3186L46.289 69.9879H43.0176L45.6368 83.2115C46.9957 81.7654 48.3552 80.3186 48.3552 80.3186Z" fill="#EA4747"/>
  <path d="M78.1408 74.9482V84.3203C78.1408 85.2481 77.3888 86 76.4611 86H43.0176L53.1757 75.3254L58.3355 58.9774L68.0528 61.6773C74.015 63.3321 78.1408 68.7602 78.1408 74.9482Z" fill="#636363"/>
  <path d="M68.0536 61.6767L66.9395 61.367C69.9321 63.9246 71.7699 67.7124 71.7699 71.8401V86H76.4612C77.3883 86 78.1409 85.2481 78.1409 84.3203V74.9475C78.1409 68.7603 74.0151 63.3328 68.0536 61.6767Z" fill="#494949"/>
  <path d="M17.9818 61.6767L27.6991 58.9774L32.8595 75.3254L43.0177 86H9.57422C8.64645 86 7.89453 85.2481 7.89453 84.3203V74.9475C7.89453 68.7602 12.0203 63.3327 17.9818 61.6767Z" fill="#636363"/>
  <path d="M49.2162 53.2875L43.0178 59.4853L36.8193 53.2875V43.4738H49.2162V53.2875Z" fill="#F9B3A7"/>
  <path d="M59.2021 19.0251H63.6789V25.9118H59.2021V19.0251Z" fill="#FFD664"/>
  <path d="M60.4066 1.29126V12.1384C60.4066 14.0398 58.8647 15.5817 56.9633 15.5817H22.3564V19.0251H63.6781V1.29126H60.4066Z" fill="#494949"/>
  <path d="M22.3564 19.0251H26.8332V25.9118H22.3564V19.0251Z" fill="#FFD664"/>
  <path d="M43.0175 19.0251H26.8335V24.7065H24.251C22.3489 24.7065 20.8076 26.2484 20.8076 28.1499V30.5605C20.8076 32.4619 22.3489 34.0038 24.251 34.0038H27.0395C28.2763 41.7146 34.9583 47.6054 43.0175 47.6054C51.956 47.6054 59.2016 40.3597 59.2016 31.4213V19.0251H43.0175Z" fill="#FECCC1"/>
  <path d="M61.7846 24.7065H59.2021V19.0251H54.3815V31.4213C54.3815 39.5402 48.4022 46.2629 40.6074 47.4269C41.3941 47.5443 42.1985 47.6054 43.018 47.6054C51.0773 47.6054 57.7593 41.7146 58.9961 34.0038H61.7846C63.6867 34.0038 65.228 32.4626 65.228 30.5605V28.1505C65.228 26.2484 63.6867 24.7065 61.7846 24.7065Z" fill="#F9B3A7"/>
  <path d="M43.0175 69.9879H46.2883L49.6457 66.1141L43.0175 59.4852L36.3887 66.1141L39.7461 69.9879H43.0175Z" fill="#FF6969"/>
  <path d="M43.018 59.4852L40.9951 61.5087L44.4667 64.9803C45.1058 65.6194 45.1425 66.6429 44.5507 67.3253L42.2431 69.9879H46.2888L49.6462 66.1141L43.018 59.4852Z" fill="#EA4747"/>
  <path d="M36.3884 66.1141L43.0173 59.4852L36.8188 53.2874L32.6006 57.6205L36.3884 66.1141Z" fill="#C1E9F4"/>
  <path d="M49.6458 66.1141L43.0176 59.4852L49.216 53.2874L53.4336 57.6205L49.6458 66.1141Z" fill="#C1E9F4"/>
  <path d="M66.3472 80.6624V86H63.7646V80.6624C63.7646 79.9499 64.3434 79.3712 65.0559 79.3712C65.7685 79.3712 66.3472 79.9499 66.3472 80.6624Z" fill="#494949"/>
  <path d="M19.6885 86V80.6624C19.6885 79.9499 20.2665 79.3712 20.9797 79.3712C21.6923 79.3712 22.271 79.9499 22.271 80.6624V86H19.6885Z" fill="#494949"/>
</svg>
